<svg width="51" height="66" viewBox="0 0 51 66" fill="none" xmlns="http://www.w3.org/2000/svg">
<path d="M46.1548 30.0675C45.3171 28.9675 44.2972 28.0141 43.3503 27.0608C40.91 24.8607 38.1419 23.284 35.8109 20.9739C30.3841 15.6204 29.1822 6.78353 32.6422 0C29.1822 0.843357 26.1591 2.75008 23.5732 4.84014C14.1399 12.467 10.4249 25.9241 14.8684 37.4744C15.014 37.8411 15.1597 38.2078 15.1597 38.6844C15.1597 39.4911 14.6134 40.2245 13.885 40.5178C13.0473 40.8845 12.1731 40.6645 11.4811 40.0778C11.2744 39.9035 11.1015 39.6921 10.9712 39.4545C6.85554 34.211 6.19994 26.6941 8.96801 20.6806C2.88555 25.6674 -0.428843 34.101 0.0446414 42.0579C0.263173 43.8913 0.481704 45.7246 1.10088 47.558C1.61078 49.7581 2.59417 51.9581 3.68683 53.9015C7.6204 60.2451 14.4313 64.7918 21.7521 65.7085C29.5464 66.6986 37.887 65.2685 43.8602 59.8417C50.5254 53.7549 52.8564 44.0013 49.4327 35.641L48.9593 34.6877C48.1944 33.0009 46.1548 30.0675 46.1548 30.0675ZM34.6454 53.1682C33.6256 54.0482 31.9502 55.0016 30.639 55.3682C26.5598 56.835 22.4805 54.7816 20.0767 52.3615C24.4109 51.3348 26.9968 48.108 27.7617 44.8446C28.3809 41.9112 27.2154 39.4911 26.7419 36.6677C26.3048 33.9543 26.3777 31.6442 27.3611 29.1142C28.0531 30.5075 28.7815 31.9009 29.6556 33.0009C32.4601 36.6677 36.8672 38.2811 37.8142 43.2679C37.9598 43.7812 38.0327 44.2946 38.0327 44.8446C38.142 47.8514 36.8308 51.1515 34.6454 53.1682Z" fill="#FF4100"/>
</svg>
