<svg width="19" height="20" viewBox="0 0 19 20" fill="none" xmlns="http://www.w3.org/2000/svg">
<path d="M10.1203 0.237299C9.75075 -0.0790995 9.24925 -0.0790995 8.87973 0.237299L3.07293 5.23717C2.7034 5.55747 2.54834 6.11996 2.69021 6.63557C2.83208 7.15118 3.23459 7.49883 3.6932 7.49883H4.22109V10.3503C4.27718 10.3894 4.32997 10.4284 4.38276 10.4714C4.97663 10.9558 5.70578 11.2644 6.33595 11.2644C7.03211 11.2644 7.72167 10.9323 8.28915 10.4714C9.0183 9.86596 9.9916 9.86596 10.7207 10.4714C11.3278 10.9675 12.0273 11.2644 12.6739 11.2644C13.3008 11.2644 14.0333 10.9558 14.6271 10.4714C14.6766 10.4323 14.7261 10.3933 14.7756 10.3581L14.7657 7.49883H15.3134C15.772 7.49883 16.1745 7.15118 16.3164 6.63557C16.4583 6.11996 16.3032 5.55747 15.9337 5.23717L10.1269 0.237299H10.1203ZM8.88963 12.1042C8.14728 12.7096 7.23997 13.1237 6.33265 13.1237C5.44514 13.1237 4.50813 12.7018 3.77898 12.1042C3.38636 11.7722 2.85187 11.7995 2.48565 12.1706C2.01055 12.6354 1.41337 12.9909 0.816194 13.1549C0.248711 13.3112 -0.104316 13.983 0.0276566 14.6549C0.159629 15.3268 0.727112 15.7447 1.29459 15.5885C2.10293 15.3658 2.77599 14.9439 3.2148 14.6119C4.1716 15.2213 5.24388 15.6236 6.33265 15.6236C7.38514 15.6236 8.33204 15.2369 8.98531 14.8854C9.17667 14.7799 9.35153 14.6783 9.5 14.5846C9.64847 14.6783 9.82003 14.7838 10.0147 14.8854C10.668 15.2369 11.6149 15.6236 12.6673 15.6236C13.7561 15.6236 14.8284 15.2213 15.7852 14.6158C16.2273 14.9439 16.8971 15.3697 17.7054 15.5924C18.2729 15.7486 18.8404 15.3307 18.9723 14.6588C19.1043 13.9869 18.7513 13.3151 18.1838 13.1588C17.5866 12.9948 16.9895 12.6393 16.5144 12.1745C16.1481 11.8034 15.6136 11.78 15.221 12.1081C14.4952 12.7018 13.5549 13.1237 12.6673 13.1237C11.76 13.1237 10.8527 12.7096 10.1104 12.1042C9.74415 11.7956 9.25585 11.7956 8.88963 12.1042ZM12.6673 17.4986C11.76 17.4986 10.8527 17.0845 10.1104 16.4791C9.74415 16.1705 9.25585 16.1705 8.88963 16.4791C8.14728 17.0845 7.23997 17.4986 6.33265 17.4986C5.44514 17.4986 4.50813 17.0767 3.77898 16.4791C3.38636 16.147 2.85187 16.1744 2.48565 16.5455C2.01055 17.0103 1.41337 17.3658 0.816194 17.5298C0.248711 17.6861 -0.104316 18.3579 0.0276566 19.0298C0.159629 19.7016 0.727112 20.1196 1.29459 19.9634C2.10293 19.7407 2.77599 19.3188 3.2148 18.9868C4.1716 19.5962 5.24388 19.9985 6.33265 19.9985C7.38514 19.9985 8.33204 19.6118 8.98531 19.2602C9.17667 19.1548 9.35153 19.0532 9.5 18.9595C9.64847 19.0532 9.82003 19.1587 10.0147 19.2602C10.668 19.6118 11.6149 19.9985 12.6673 19.9985C13.7561 19.9985 14.8284 19.5962 15.7852 18.9907C16.2273 19.3188 16.8971 19.7446 17.7054 19.9673C18.2729 20.1235 18.8404 19.7055 18.9723 19.0337C19.1043 18.3618 18.7513 17.69 18.1838 17.5337C17.5866 17.3697 16.9895 17.0142 16.5144 16.5494C16.1481 16.1822 15.6136 16.1549 15.221 16.483C14.4952 17.0767 13.5549 17.4986 12.6673 17.4986Z" fill="#427DA0"/>
</svg>
