<svg width="52" height="62" viewBox="0 0 52 62" fill="none" xmlns="http://www.w3.org/2000/svg">
<path d="M26 0C25.4254 0 24.8743 0.225246 24.4679 0.626185C24.0616 1.02713 23.8333 1.57092 23.8333 2.13793V10.6897C23.8333 11.2567 24.0616 11.8005 24.4679 12.2014C24.8743 12.6023 25.4254 12.8276 26 12.8276C26.5746 12.8276 27.1257 12.6023 27.5321 12.2014C27.9384 11.8005 28.1667 11.2567 28.1667 10.6897V2.13793C28.1667 1.57092 27.9384 1.02713 27.5321 0.626185C27.1257 0.225246 26.5746 0 26 0ZM47.0102 7.06159C46.5892 6.64629 46.0183 6.41299 45.4231 6.41299C44.8278 6.41299 44.2569 6.64629 43.836 7.06159L37.4898 13.3257C37.2715 13.5291 37.0966 13.7737 36.9758 14.0449C36.8549 14.3162 36.7904 14.6086 36.7861 14.9049C36.7818 15.2011 36.8379 15.4953 36.9508 15.7698C37.0638 16.0443 37.2315 16.2937 37.4439 16.5032C37.6563 16.7126 37.9091 16.8779 38.1875 16.9892C38.4658 17.1005 38.7639 17.1555 39.0641 17.1511C39.3644 17.1467 39.6607 17.0828 39.9355 16.9634C40.2103 16.8439 40.458 16.6713 40.664 16.4557L47.0102 10.1915C47.4304 9.77624 47.6664 9.21339 47.6664 8.62655C47.6664 8.03971 47.4304 7.47686 47.0102 7.06159ZM8.164 7.06159C7.74122 6.65518 7.17322 6.42944 6.58299 6.43325C5.99277 6.43706 5.42781 6.6701 5.01045 7.08193C4.59309 7.49376 4.35691 8.05122 4.35305 8.63362C4.34919 9.21602 4.57796 9.77648 4.98983 10.1937L11.3382 16.4557C11.7631 16.8509 12.3274 17.0672 12.9113 17.0585C13.4952 17.0499 14.0528 16.8171 14.4656 16.4095C14.8783 16.0019 15.1139 15.4516 15.1222 14.8755C15.1306 14.2993 14.911 13.7426 14.5102 13.3236L8.164 7.06159ZM8.59517 44.8966L12.7053 27.5152C13.4058 24.5545 15.1007 21.9146 17.5145 20.0249C19.9282 18.1352 22.9188 17.1067 26 17.1067C29.0812 17.1067 32.0718 18.1352 34.4855 20.0249C36.8993 21.9146 38.5942 24.5545 39.2947 27.5152L43.4048 44.8966H45.2075C48.7088 44.8966 52 47.6117 52 51.46V55.4366C52 59.2635 48.7543 62 45.2075 62H6.7925C3.29333 62 0 59.2848 0 55.4366V51.46C0 47.6117 3.29333 44.8966 6.7925 44.8966H8.59517ZM35.2972 23.8764C34.0405 21.7278 31.6182 20.7871 29.8892 21.7727C28.1602 22.7561 27.7767 25.296 29.0333 27.4446C30.29 29.5911 32.7102 30.5339 34.4392 29.5483C36.1703 28.5628 36.5538 26.0229 35.2972 23.8764ZM45.2075 57.7241C46.579 57.7241 47.6667 56.6915 47.6667 55.4366V51.46C47.6667 50.205 46.5573 49.1724 45.2075 49.1724H6.7925C5.44267 49.1724 4.33333 50.205 4.33333 51.46V55.4366C4.33333 56.6915 5.44267 57.7241 6.7925 57.7241H45.2075Z" fill="#7F0101"/>
</svg>
