<svg width="71" height="62" viewBox="0 0 71 62" fill="none" xmlns="http://www.w3.org/2000/svg">
<path d="M37.8179 0.735626C36.437 -0.245209 34.563 -0.245209 33.1821 0.735626L11.483 16.2352C10.1022 17.2282 9.52273 18.9719 10.0529 20.5703C10.583 22.1687 12.0872 23.2464 13.8009 23.2464H15.7736V32.086C15.9831 32.2071 16.1804 32.3282 16.3777 32.4614C18.5969 33.9629 21.3216 34.9195 23.6765 34.9195C26.2779 34.9195 28.8547 33.8902 30.9752 32.4614C33.7 30.5845 37.337 30.5845 40.0617 32.4614C42.3303 33.9992 44.944 34.9195 47.3605 34.9195C49.7031 34.9195 52.4401 33.9629 54.6593 32.4614C54.8443 32.3403 55.0292 32.2192 55.2141 32.1102L55.1771 23.2464H57.2238C58.9375 23.2464 60.4416 22.1687 60.9718 20.5703C61.5019 18.9719 60.9225 17.2282 59.5416 16.2352L37.8425 0.735626H37.8179ZM33.2191 37.523C30.4451 39.3999 27.0546 40.6834 23.6641 40.6834C20.3476 40.6834 16.8462 39.3756 14.1215 37.523C12.6543 36.4937 10.657 36.5784 9.28848 37.7288C7.5131 39.1698 5.28154 40.2717 3.04999 40.7803C0.929393 41.2647 -0.389813 43.3474 0.103348 45.4302C0.59651 47.5129 2.7171 48.8086 4.8377 48.3242C7.85831 47.634 10.3734 46.3262 12.0132 45.297C15.5886 47.186 19.5955 48.4332 23.6641 48.4332C27.5971 48.4332 31.1355 47.2344 33.5767 46.1446C34.2918 45.8177 34.9452 45.5028 35.5 45.2122C36.0548 45.5028 36.6959 45.8298 37.4233 46.1446C39.8645 47.2344 43.4029 48.4332 47.3359 48.4332C51.4045 48.4332 55.4114 47.186 58.9868 45.3091C60.6389 46.3262 63.1417 47.6461 66.1623 48.3363C68.2829 48.8207 70.4035 47.525 70.8967 45.4423C71.3898 43.3595 70.0706 41.2768 67.95 40.7924C65.7185 40.2838 63.4869 39.1819 61.7115 37.7409C60.343 36.5906 58.3457 36.5179 56.8785 37.5351C54.1662 39.3756 50.6524 40.6834 47.3359 40.6834C43.9454 40.6834 40.5549 39.3999 37.7809 37.523C36.4124 36.5663 34.5877 36.5663 33.2191 37.523ZM47.3359 54.2456C43.9454 54.2456 40.5549 52.962 37.7809 51.0851C36.4124 50.1285 34.5877 50.1285 33.2191 51.0851C30.4451 52.962 27.0546 54.2456 23.6641 54.2456C20.3476 54.2456 16.8462 52.9378 14.1215 51.0851C12.6543 50.0558 10.657 50.1406 9.28848 51.291C7.5131 52.7319 5.28154 53.8339 3.04999 54.3424C0.929393 54.8268 -0.389813 56.9096 0.103348 58.9923C0.59651 61.0751 2.7171 62.3708 4.8377 61.8864C7.85831 61.1962 10.3734 59.8884 12.0132 58.8591C15.5886 60.7481 19.5955 61.9954 23.6641 61.9954C27.5971 61.9954 31.1355 60.7966 33.5767 59.7068C34.2918 59.3798 34.9452 59.065 35.5 58.7744C36.0548 59.065 36.6959 59.3919 37.4233 59.7068C39.8645 60.7966 43.4029 61.9954 47.3359 61.9954C51.4045 61.9954 55.4114 60.7481 58.9868 58.8712C60.6389 59.8884 63.1417 61.2083 66.1623 61.8985C68.2829 62.3829 70.4035 61.0872 70.8967 59.0044C71.3898 56.9217 70.0706 54.8389 67.95 54.3546C65.7185 53.846 63.4869 52.744 61.7115 51.3031C60.343 50.1648 58.3457 50.0801 56.8785 51.0972C54.1662 52.9378 50.6524 54.2456 47.3359 54.2456Z" fill="#006BFF"/>
</svg>
